<svg xmlns="http://www.w3.org/2000/svg" viewBox="0 0 120 120" role="img" aria-label="Sabana Rivers">
  <rect width="120" height="120" fill="#000"/>
  <g fill="none" stroke="#F5F7FA" stroke-linecap="round" stroke-linejoin="round">
    <!-- garza: pico, cabeza, cuello en S, cuerpo y patas -->
    <path d="M38 22 L52 25" stroke-width="2.6"/>
    <path d="M52 25 C58 21 64 23 63 29 C62 35 54 37 55 45 C56 52 66 52 70 58" stroke-width="4.2"/>
    <path d="M70 58 C78 64 82 70 76 76 C70 81 58 80 52 74 C60 74 66 70 70 58 Z" fill="#F5F7FA" stroke-width="2"/>
    <path d="M64 79 L62 92 M70 79 L72 92" stroke-width="2"/>
    <path d="M63 14 C66 16 69 19 70 24" stroke-width="1.6"/>
  </g>
  <path d="M30 96 C44 91 58 91 72 96 S96 100 104 95" fill="none" stroke="#F5F7FA" stroke-width="2.2" stroke-linecap="round"/>
  <text x="60" y="108" text-anchor="middle" font-family="Arial Black, Arial, sans-serif" font-weight="900" font-size="11" fill="#F5F7FA" letter-spacing="0.5">SABANA</text>
  <text x="60" y="118" text-anchor="middle" font-family="Arial Black, Arial, sans-serif" font-weight="900" font-size="9.5" fill="#F5F7FA" letter-spacing="0.5">RIVERS</text>
</svg>
